<svg xmlns="http://www.w3.org/2000/svg" xmlns:xlink="http://www.w3.org/1999/xlink" width="100.549" height="33" viewBox="0 0 100.549 33"><defs><clipPath id="a"><rect width="98.608" height="14.941" fill="none"/></clipPath></defs><g transform="translate(0.446 16.565)"><rect width="99" height="16" rx="2" transform="translate(-0.446 0.435)" fill="#ccc"/></g><g transform="translate(1.941 17.313)" clip-path="url(#a)"><g transform="translate(-864 -543.5)"><line y2="10" transform="translate(864.5 543.5)" fill="none" stroke="#b1b1b1" stroke-width="1"/><line y2="10" transform="translate(868.5 543.5)" fill="none" stroke="#b1b1b1" stroke-width="1"/></g><g transform="translate(-856 -543.5)"><line y2="10" transform="translate(864.5 543.5)" fill="none" stroke="#b1b1b1" stroke-width="1"/><line y2="10" transform="translate(868.5 543.5)" fill="none" stroke="#b1b1b1" stroke-width="1"/></g><g transform="translate(-848 -543.5)"><line y2="10" transform="translate(864.5 543.5)" fill="none" stroke="#b1b1b1" stroke-width="1"/><line y2="10" transform="translate(868.5 543.5)" fill="none" stroke="#b1b1b1" stroke-width="1"/></g><g transform="translate(-840 -543.5)"><line y2="10" transform="translate(864.5 543.5)" fill="none" stroke="#b1b1b1" stroke-width="1"/><line y2="10" transform="translate(868.5 543.5)" fill="none" stroke="#b1b1b1" stroke-width="1"/></g><g transform="translate(-832 -543.5)"><line y2="10" transform="translate(864.5 543.5)" fill="none" stroke="#b1b1b1" stroke-width="1"/><line y2="10" transform="translate(868.5 543.5)" fill="none" stroke="#b1b1b1" stroke-width="1"/></g><g transform="translate(-824 -543.5)"><line y2="10" transform="translate(864.5 543.5)" fill="none" stroke="#b1b1b1" stroke-width="1"/><line y2="10" transform="translate(868.5 543.5)" fill="none" stroke="#b1b1b1" stroke-width="1"/></g><g transform="translate(-816 -543.5)"><line y2="10" transform="translate(864.5 543.5)" fill="none" stroke="#b1b1b1" stroke-width="1"/><line y2="10" transform="translate(868.5 543.5)" fill="none" stroke="#b1b1b1" stroke-width="1"/></g><g transform="translate(-808 -543.5)"><line y2="10" transform="translate(864.5 543.5)" fill="none" stroke="#b1b1b1" stroke-width="1"/><line y2="10" transform="translate(868.5 543.5)" fill="none" stroke="#b1b1b1" stroke-width="1"/></g><g transform="translate(-800 -543.5)"><line y2="10" transform="translate(864.5 543.5)" fill="none" stroke="#b1b1b1" stroke-width="1"/><line y2="10" transform="translate(868.5 543.5)" fill="none" stroke="#b1b1b1" stroke-width="1"/></g><g transform="translate(-792 -543.5)"><line y2="10" transform="translate(864.5 543.5)" fill="none" stroke="#b1b1b1" stroke-width="1"/><line y2="10" transform="translate(868.5 543.5)" fill="none" stroke="#b1b1b1" stroke-width="1"/></g><g transform="translate(-784 -543.5)"><line y2="10" transform="translate(864.5 543.5)" fill="none" stroke="#b1b1b1" stroke-width="1"/><line y2="10" transform="translate(868.5 543.5)" fill="none" stroke="#b1b1b1" stroke-width="1"/></g><g transform="translate(-776 -543.5)"><line y2="10" transform="translate(864.5 543.5)" fill="none" stroke="#b1b1b1" stroke-width="1"/><line y2="10" transform="translate(868.5 543.5)" fill="none" stroke="#b1b1b1" stroke-width="1"/></g><g transform="translate(-768 -543.5)"><line y2="10" transform="translate(864.5 543.5)" fill="none" stroke="#b1b1b1" stroke-width="1"/><line y2="10" transform="translate(868.5 543.5)" fill="none" stroke="#b1b1b1" stroke-width="1"/></g></g><g transform="translate(0.446 0.131)"><rect width="99" height="18" rx="1" transform="translate(-0.446 -0.131)" fill="#66a078"/></g></svg>